<svg xmlns="http://www.w3.org/2000/svg" version="1.1" xmlns:xlink="http://www.w3.org/1999/xlink" xmlns:svgjs="http://svgjs.dev/svgjs" width="2000" height="545" viewBox="0 0 2000 545"><g transform="matrix(1,0,0,1,-1.2122535455686148,0.6184672193653)"><svg viewBox="0 0 396 108" data-background-color="#ffffff" preserveAspectRatio="xMidYMid meet" height="545" width="2000" xmlns="http://www.w3.org/2000/svg" xmlns:xlink="http://www.w3.org/1999/xlink"><g id="tight-bounds" transform="matrix(1,0,0,1,0.24002620202259095,-0.12255864163569186)"><svg viewBox="0 0 395.52 108.24511728327138" height="108.24511728327138" width="395.52"><g><svg viewBox="0 0 561.2013115527126 153.58844505599996" height="108.24511728327138" width="395.52"><g transform="matrix(1,0,0,1,0,13.49805647455321)"><svg viewBox="0 0 397.4975999999999 126.59233210689354" height="126.59233210689354" width="397.4975999999999"><g id="textblocktransform"><svg viewBox="0 0 397.4975999999999 126.59233210689354" height="126.59233210689354" width="397.4975999999999" id="textblock"><g><rect width="397.4975999999999" height="7.169428196752249" x="0" y="87.9460623791893" fill="#7d7b7b" opacity="1" stroke-width="0" stroke="transparent" fill-opacity="1" class="rect-yte-0" data-fill-palette-color="primary" rx="1%" id="yte-0" data-palette-color="#7d7b7b"></rect></g><g transform="matrix(1,0,0,1,0.9887999999999693,0)"><svg viewBox="0 0 395.52 79.50040089086859" height="79.50040089086859" width="395.52"><g transform="matrix(1,0,0,1,0,0)"><svg width="395.52" viewBox="3.3 -35.5 179.57999999999998 36.1" height="79.50040089086859" data-palette-color="#7d7b7b"><path d="M21.35-1.15Q16.9 0.5 13.05 0.5L13.05 0.5Q8.7 0.5 6-1.8 3.3-4.1 3.3-9.15L3.3-9.15 3.3-25.2Q3.3-29 4.38-30.95 5.45-32.9 7.65-34.25L7.65-34.25Q9.85-35.5 13.05-35.5L13.05-35.5Q16.95-35.5 20.1-33.85L20.1-33.85 19.3-31.95Q16.45-33 13.9-33L13.9-33Q10.85-33 8.47-31.5 6.1-30 6.1-25.65L6.1-25.65 6.1-9.25Q6.1-5.8 7.9-3.93 9.7-2.05 13.3-2.05L13.3-2.05Q16.45-2.05 20.75-3.5L20.75-3.5 21.35-1.15ZM44.35-9.2Q44.35-5 42.05-2.25 39.75 0.5 35.1 0.5L35.1 0.5Q30.45 0.5 28.07-2.27 25.7-5.05 25.7-9.2L25.7-9.2 25.7-15.8Q25.7-20.55 28.12-23.08 30.55-25.6 35.1-25.6L35.1-25.6Q39.45-25.6 41.9-22.98 44.35-20.35 44.35-15.8L44.35-15.8 44.35-9.2ZM41.55-15.8Q41.55-19.55 39.82-21.3 38.1-23.05 35.1-23.05L35.1-23.05Q32-23.05 30.25-21.3 28.5-19.55 28.5-15.8L28.5-15.8 28.5-8.7Q28.5-5.7 30.27-3.85 32.05-2 35.1-2L35.1-2Q38.2-2 39.87-3.83 41.55-5.65 41.55-8.7L41.55-8.7 41.55-15.8ZM49.9-17.3Q49.9-22.55 54.15-24.5L54.15-24.5Q56.2-25.45 59.05-25.45L59.05-25.45Q60.9-25.45 62.62-25 64.34-24.55 65.55-23.7L65.55-23.7 65.55-35 68.34-35 68.34 0 65.59 0.25Q62.35 0.6 60.5 0.6L60.5 0.6Q58.65 0.6 57.02 0.25 55.4-0.1 53.8-0.9L53.8-0.9Q52-1.8 50.95-3.55 49.9-5.3 49.9-7.85L49.9-7.85 49.9-17.3ZM65.55-21.25Q64.2-22 62.45-22.48 60.7-22.95 59-22.95L59-22.95Q56.2-22.95 54.42-21.58 52.65-20.2 52.65-17.15L52.65-17.15 52.65-7.8Q52.65-1.95 60.7-1.95L60.7-1.95Q62.6-1.95 65.55-2.4L65.55-2.4 65.55-21.25ZM88.49-1.75Q86.69-0.6 84.39 0 82.09 0.6 79.79 0.6L79.79 0.6Q76.09 0.6 73.92-1.23 71.74-3.05 71.74-6.7L71.74-6.7 71.74-16.95Q71.74-21 74.27-23.25 76.79-25.5 80.94-25.5L80.94-25.5Q85.09-25.5 87.42-23.28 89.74-21.05 89.74-17.1L89.74-17.1 89.74-10.6 74.54-9.75 74.54-6.7Q74.54-4.3 76.09-3.1 77.64-1.9 80.14-1.9L80.14-1.9Q83.64-1.9 87.39-3.9L87.39-3.9 88.49-1.75ZM86.94-17.45Q86.94-20.55 84.99-21.83 83.04-23.1 80.89-23.1L80.89-23.1Q78.14-23.1 76.34-21.6 74.54-20.1 74.54-16.9L74.54-16.9 74.54-12.5 86.94-13.1 86.94-17.45ZM96.39-8.9Q96.54-7.2 97.67-5.65 98.79-4.1 100.77-3.13 102.74-2.15 105.29-2.15L105.29-2.15Q109.14-2.15 111.72-3.88 114.29-5.6 114.29-9.35L114.29-9.35Q114.29-11.55 113.04-13.03 111.79-14.5 109.94-15.38 108.09-16.25 104.89-17.4L104.89-17.4Q101.44-18.6 99.37-19.63 97.29-20.65 95.87-22.4 94.44-24.15 94.44-26.9L94.44-26.9Q94.44-29.1 95.69-31.08 96.94-33.05 99.47-34.27 101.99-35.5 105.69-35.5L105.69-35.5Q108.14-35.5 109.74-35.15 111.34-34.8 112.99-34L112.99-34 112.14-31.35Q109.29-32.8 105.79-32.8L105.79-32.8Q101.94-32.8 99.64-31.2 97.34-29.6 97.34-26.75L97.34-26.75Q97.34-24.95 98.49-23.73 99.64-22.5 101.32-21.75 102.99-21 105.99-19.95L105.99-19.95Q109.64-18.7 111.89-17.63 114.14-16.55 115.72-14.58 117.29-12.6 117.29-9.6L117.29-9.6Q117.29-5 114.37-2.23 111.44 0.55 105.34 0.55L105.34 0.55Q101.64 0.55 99.02-0.83 96.39-2.2 95.02-4.38 93.64-6.55 93.54-8.9L93.54-8.9 96.39-8.9ZM140.84 0Q135.44 0.55 133.04 0.55L133.04 0.55Q127.79 0.55 124.69-1.4 121.59-3.35 121.59-8.45L121.59-8.45 121.59-12.6Q121.59-17.55 125.04-19.25L125.04-19.25Q126.69-20.1 129.24-20.1L129.24-20.1Q131.59-20.1 133.99-19.33 136.39-18.55 138.04-17.3L138.04-17.3Q138.04-20.05 136.44-21.68 134.84-23.3 130.29-23.3L130.29-23.3 130.44-25.45Q135.24-25.45 137.51-23.93 139.79-22.4 140.31-20.3 140.84-18.2 140.84-14.9L140.84-14.9 140.84 0ZM138.04-15.15Q135.99-16.1 133.66-16.8 131.34-17.5 129.39-17.5L129.39-17.5Q124.34-17.5 124.34-12.45L124.34-12.45 124.34-8.1Q124.34-4.85 126.59-3.38 128.84-1.9 132.99-1.9L132.99-1.9Q135.14-1.9 138.04-2.3L138.04-2.3 138.04-15.15ZM160.99 0L151.39-15.85 148.79-13.6 148.79 0 145.99 0 145.99-35 148.79-35 148.79-16.75 158.79-26 160.79-24.05 153.39-17.6Q156.79-11.95 164.34 0L164.34 0 160.99 0ZM181.63-1.75Q179.83-0.6 177.53 0 175.23 0.6 172.93 0.6L172.93 0.6Q169.23 0.6 167.06-1.23 164.88-3.05 164.88-6.7L164.88-6.7 164.88-16.95Q164.88-21 167.41-23.25 169.93-25.5 174.08-25.5L174.08-25.5Q178.23-25.5 180.56-23.28 182.88-21.05 182.88-17.1L182.88-17.1 182.88-10.6 167.68-9.75 167.68-6.7Q167.68-4.3 169.23-3.1 170.78-1.9 173.28-1.9L173.28-1.9Q176.78-1.9 180.53-3.9L180.53-3.9 181.63-1.75ZM180.08-17.45Q180.08-20.55 178.13-21.83 176.18-23.1 174.03-23.1L174.03-23.1Q171.28-23.1 169.48-21.6 167.68-20.1 167.68-16.9L167.68-16.9 167.68-12.5 180.08-13.1 180.08-17.45Z" opacity="1" transform="matrix(1,0,0,1,0,0)" fill="#7d7b7b" class="wordmark-text-0" data-fill-palette-color="primary" id="text-0"></path></svg></g></svg></g><g transform="matrix(1,0,0,1,0,103.56115206426226)"><svg viewBox="0 0 360.71423999999996 23.03118004263127" height="23.03118004263127" width="360.71423999999996"><g transform="matrix(1,0,0,1,0,0)"><svg width="360.71423999999996" viewBox="1.828871480559 -38.38 784.931128519441 50.120000000000005" height="23.03118004263127" data-palette-color="#7d7b7b"><path d="M22.75-33.08L22.75-33.08Q24.1-31.2 25.5-28.23 26.9-25.27 28.22-21.73 29.54-18.19 30.6-14.49 31.67-10.79 32.35-7.37 33.03-3.96 33.13-1.29L33.13-1.29Q33.15 0 31.96 0L31.96 0 26.05 0Q24.9 0 24.85-1.15L24.85-1.15Q24.76-3.88 23.97-7.79L23.97-7.79 10.64-7.79Q9.96-3.98 9.86-1.15L9.86-1.15Q9.81 0 8.62 0L8.62 0 2.83 0Q2.39 0 2.1-0.26 1.81-0.51 1.83-1.15L1.83-1.15Q1.95-3.86 2.62-7.31 3.3-10.77 4.37-14.48 5.44-18.19 6.76-21.74 8.08-25.29 9.5-28.25 10.91-31.2 12.26-33.08L12.26-33.08Q12.96-34.08 13.76-34.55 14.55-35.01 15.72-35.01L15.72-35.01 19.24-35.01Q20.43-35.01 21.24-34.55 22.05-34.08 22.75-33.08ZM17.38-27.29L17.24-27.29Q15.63-24.73 14.28-21.17 12.94-17.6 11.96-13.84L11.96-13.84 22.56-13.84Q21.53-17.6 20.19-21.17 18.85-24.73 17.38-27.29L17.38-27.29ZM46.56-1.83L41.45 0.51Q40.94 0.73 40.72 0.73L40.72 0.73Q40.5 0.73 40.26 0.56L40.26 0.56Q39.69 0.17 38.97-1.35 38.25-2.88 38.25-6.05L38.25-6.05 38.25-34.33Q38.25-34.91 38.5-35.23L38.5-35.23Q39.52-36.57 41.5-38.13L41.5-38.13Q41.84-38.38 42.11-38.38L42.11-38.38Q42.43-38.38 42.72-38.13L42.72-38.13Q43.77-37.33 44.49-36.62 45.21-35.91 45.73-35.23L45.73-35.23Q45.97-34.91 45.97-34.33L45.97-34.33 45.97-7.54Q45.97-5.93 46.24-4.8 46.51-3.66 46.87-2.98L46.87-2.98Q47.29-2.17 46.56-1.83L46.56-1.83ZM57.03-1.78L57.03-1.78Q56.32-2.88 55.51-4.85 54.71-6.81 53.93-9.22 53.14-11.62 52.5-14.03 51.85-16.43 51.46-18.44 51.07-20.46 51.07-21.61L51.07-21.61Q51.07-22.09 51.34-22.41L51.34-22.41Q52.46-23.8 54.54-25.32L54.54-25.32Q54.9-25.56 55.2-25.56L55.2-25.56Q55.51-25.56 55.85-25.32L55.85-25.32Q56.98-24.51 57.75-23.8 58.52-23.1 59.05-22.41L59.05-22.41Q59.32-22.09 59.32-21.51L59.32-21.51 59.32-21.63Q59.32-20.12 59.5-18.14 59.69-16.16 60.03-14.06 60.37-11.96 60.85-10.06 61.32-8.15 61.91-6.79L61.91-6.79 62.06-6.79Q62.69-8.15 63.4-10.35 64.11-12.55 64.75-15 65.4-17.46 65.91-19.63 66.43-21.8 66.65-23.07L66.65-23.07Q66.82-24.02 67.41-24.34 68.01-24.66 69.09-24.66L69.09-24.66 71.92-24.66Q73.14-24.66 73.66-24.29 74.19-23.93 74.31-23.07L74.31-23.07Q74.51-21.75 75.02-19.52 75.53-17.29 76.18-14.79 76.83-12.3 77.49-10.13 78.14-7.96 78.61-6.79L78.61-6.79 78.78-6.79Q79.51-8.4 80.17-10.95 80.83-13.5 81.25-16.33 81.66-19.17 81.66-21.61L81.66-21.61 81.66-21.51Q81.66-22.09 81.9-22.41L81.9-22.41Q82.47-23.1 83.22-23.8 83.98-24.51 85.05-25.32L85.05-25.32Q85.4-25.56 85.69-25.56L85.69-25.56Q86.03-25.56 86.32-25.32L86.32-25.32Q87.42-24.51 88.18-23.8 88.94-23.1 89.47-22.41L89.47-22.41Q89.72-22.09 89.72-21.56L89.72-21.56Q89.69-20.36 89.25-18.37 88.81-16.38 88.09-14.01 87.37-11.65 86.51-9.28 85.64-6.91 84.75-4.93 83.86-2.95 83.1-1.78L83.1-1.78Q82.61-1.03 82.25-0.63 81.88-0.24 81.35-0.12 80.83 0 79.8 0L79.8 0 77.05 0Q75.9 0 75.25-0.33 74.6-0.66 74.04-1.78L74.04-1.78Q73.7-2.44 73.21-3.99 72.72-5.54 72.21-7.39 71.7-9.23 71.31-10.84 70.92-12.45 70.8-13.21L70.8-13.21Q70.67-13.94 70.54-14.99 70.41-16.04 70.36-16.65L70.36-16.65 70.23-16.65Q70.21-16.04 70.08-15 69.94-13.96 69.79-13.18L69.79-13.18Q69.65-12.5 69.26-11.07 68.87-9.64 68.32-7.92 67.77-6.2 67.17-4.57 66.57-2.93 66.04-1.78L66.04-1.78Q65.5-0.66 64.8-0.33 64.11 0 62.59 0L62.59 0 59.76 0Q58.56 0 58.14-0.37 57.71-0.73 57.03-1.78ZM51.07-21.51L51.07-21.66 51.07-21.61Q51.07-21.56 51.07-21.51L51.07-21.51ZM89.72-21.61L89.72-21.61 89.72-21.51 89.72-21.56Q89.72-21.58 89.72-21.61ZM101.19 0.61L101.19 0.61Q97.6 0.61 95.49-1.4 93.38-3.42 93.38-6.96L93.38-6.96Q93.38-8.79 94.05-10.36 94.72-11.94 96.39-13.15 98.06-14.36 101.08-15.09 104.09-15.82 108.78-15.94L108.78-15.94Q108.78-18.16 107.67-19.14 106.56-20.12 104.34-20.12L104.34-20.12Q102.34-20.12 101.07-19.43 99.8-18.75 99.48-18.51L99.48-18.51Q99.14-18.21 98.65-18.29L98.65-18.29Q97.99-18.38 97.25-18.63 96.5-18.87 95.65-19.19L95.65-19.19Q95.52-19.24 95.38-19.35 95.23-19.46 95.21-19.68L95.21-19.68Q95.21-19.8 95.23-19.98 95.26-20.17 95.35-20.65L95.35-20.65Q95.45-21.14 95.65-21.86 95.84-22.58 96.01-22.97L96.01-22.97Q96.23-23.39 96.75-23.75L96.75-23.75Q97.16-24.1 99.26-24.85 101.36-25.61 105.34-25.61L105.34-25.61Q116.3-25.61 116.3-14.94L116.3-14.94 116.3-1.12Q116.3-0.66 116.04-0.33 115.79 0 115.18 0L115.18 0 111.52 0Q111.13 0 110.82-0.11 110.51-0.22 110.25-0.54L110.25-0.54 108.73-2.49 108.56-2.49Q107.44-0.85 105.55-0.12 103.65 0.61 101.19 0.61ZM103.87-5.05L103.87-5.05Q106.12-5.05 107.27-6.2 108.42-7.35 108.73-8.57L108.73-8.57 108.73-11.28Q105.34-11.28 103.64-10.75 101.95-10.23 101.38-9.39 100.82-8.54 100.82-7.57L100.82-7.57Q100.82-6.15 101.7-5.6 102.58-5.05 103.87-5.05ZM123.67 11.74L123.67 11.74Q122.77 11.74 122.3 11.56 121.84 11.38 121.52 11.11L121.52 11.11Q120.89 10.5 120.16 9.4L120.16 9.4Q119.99 9.13 119.79 8.78 119.59 8.42 119.59 8.18L119.59 8.18Q119.59 7.91 119.72 7.69 119.84 7.47 120.01 7.28L120.01 7.28Q120.4 6.76 120.96 6.21 121.52 5.66 121.91 5.35L121.91 5.35Q122.18 5.13 122.35 5.07 122.52 5 122.65 5L122.65 5Q122.77 5 123.01 5.05 123.26 5.1 123.74 5.1L123.74 5.1Q125.43 5.1 127.26 4 129.09 2.91 130.87-0.12L130.87-0.12Q129.02-1.83 127.22-4.41 125.43-6.98 123.99-10 122.55-13.01 121.68-16.02 120.82-19.02 120.82-21.56L120.82-21.56Q120.82-22.09 121.08-22.41L121.08-22.41Q122.21-23.8 124.28-25.32L124.28-25.32Q124.65-25.56 124.94-25.56L124.94-25.56Q125.26-25.56 125.6-25.32L125.6-25.32Q126.72-24.51 127.49-23.8 128.26-23.1 128.8-22.41L128.8-22.41Q129.07-22.09 129.07-21.51L129.07-21.51 129.07-21.61Q129.07-19.68 129.53-17.53 129.99-15.38 130.8-13.34 131.61-11.3 132.61-9.66 133.61-8.01 134.68-7.03L134.68-7.03 134.8-7.03Q135.29-7.96 135.89-9.7 136.49-11.45 137.03-13.59 137.56-15.72 137.91-17.83 138.25-19.95 138.25-21.58L138.25-21.58 138.25-21.51Q138.25-22.09 138.49-22.41L138.49-22.41Q139.05-23.1 139.81-23.8 140.57-24.51 141.64-25.32L141.64-25.32Q141.98-25.56 142.28-25.56L142.28-25.56Q142.62-25.56 142.91-25.32L142.91-25.32Q144.01-24.51 144.77-23.8 145.52-23.1 146.06-22.41L146.06-22.41Q146.3-22.09 146.3-21.53L146.3-21.53Q146.28-19.31 145.45-15.73 144.62-12.16 143.03-7.98 141.45-3.81 139.17 0.2L139.17 0.2Q135.78 6.23 131.85 8.98 127.92 11.74 123.67 11.74ZM146.3-21.58L146.3-21.58 146.3-21.51 146.3-21.53Q146.3-21.56 146.3-21.58ZM120.82-21.51L120.82-21.58 120.82-21.56 120.82-21.51ZM157.73 0.61L157.73 0.61Q155.11 0.61 153.39 0.17 151.67-0.27 150.63-0.89 149.6-1.51 149.01-2.03L149.01-2.03Q148.57-2.44 148.91-2.95L148.91-2.95 151.4-6.64Q151.94-7.42 152.62-6.74L152.62-6.74Q153.33-6.05 154.54-5.41 155.75-4.76 157.56-4.76L157.56-4.76Q159.17-4.76 160.2-5.31 161.24-5.86 161.24-6.91L161.24-6.91Q161.24-7.64 160.78-8.11 160.31-8.57 159.14-9.06 157.97-9.55 155.87-10.3L155.87-10.3Q152.77-11.43 151.18-13.01 149.6-14.6 149.6-17.65L149.6-17.65Q149.6-20.46 151.15-22.22 152.7-23.97 155.13-24.79 157.56-25.61 160.19-25.61L160.19-25.61Q163.54-25.61 164.89-24.99 166.25-24.37 166.64-24.02L166.64-24.02Q167-23.71 167.15-23.29L167.15-23.29Q167.47-22.34 167.64-20.78L167.64-20.78Q167.74-19.87 167.18-19.58L167.18-19.58Q166.88-19.41 166.25-19.21 165.61-19.02 164.98-18.87 164.34-18.73 164.03-18.73L164.03-18.73Q163.93-18.73 163.82-18.79 163.71-18.85 163.44-19.09L163.44-19.09Q163.12-19.41 162.35-19.82 161.58-20.24 160.24-20.24L160.24-20.24Q158.92-20.24 158.03-19.81 157.14-19.38 157.14-18.31L157.14-18.31Q157.14-17.14 158.28-16.55 159.41-15.97 162.02-15.04L162.02-15.04Q164.07-14.33 165.6-13.49 167.13-12.65 167.96-11.29 168.79-9.94 168.79-7.64L168.79-7.64Q168.79-4.66 167.16-2.84 165.54-1.03 163.01-0.21 160.49 0.61 157.73 0.61ZM201.2-11.69L201.2-11.69Q200.57-11.69 200.13-12.01L200.13-12.01Q199.67-12.33 199.03-12.92 198.4-13.5 197.61-14.36L197.61-14.36Q197.32-14.7 197.32-14.97L197.32-14.97Q197.32-15.23 197.61-15.58L197.61-15.58Q199.13-17.29 200.37-18.09L200.37-18.09Q200.67-18.29 201.2-18.29L201.2-18.29Q202.86-18.29 204.07-19.53 205.28-20.78 205.23-23.56L205.23-23.56Q205.21-26.56 203.75-27.76 202.3-28.96 199.79-28.96L199.79-28.96 198.62-28.96Q197-28.96 196.42-28.27 195.83-27.59 195.83-25.93L195.83-25.93 195.83-1.29Q195.83-0.56 195.53-0.28 195.22 0 194.49 0L194.49 0 189.29 0Q188.56 0 188.25-0.28 187.95-0.56 187.95-1.29L187.95-1.29 187.95-28.47Q187.95-30.91 188.4-32.34 188.85-33.76 190.16-34.39 191.46-35.01 193.98-35.01L193.98-35.01 199.79-35.01Q206.79-35.01 210.16-32.26 213.53-29.52 213.53-23.85L213.53-23.85Q213.53-19.6 211.76-16.92 209.99-14.23 207.17-12.96 204.35-11.69 201.2-11.69ZM227.01 0.61L227.01 0.61Q218.31 0.61 218.31-9.91L218.31-9.91 218.29-22.31Q218.29-22.9 218.53-23.22L218.53-23.22Q219.56-24.56 221.54-26.12L221.54-26.12Q221.88-26.37 222.15-26.37L222.15-26.37Q222.47-26.37 222.76-26.12L222.76-26.12Q223.81-25.32 224.53-24.61 225.25-23.9 225.76-23.22L225.76-23.22Q226.01-22.9 226.01-22.31L226.01-22.31 226.01-10.6Q226.01-5.3 230.2-5.3L230.2-5.3Q232.28-5.3 233.52-6.75 234.77-8.2 234.77-10.69L234.77-10.69 234.77-22.31Q234.77-22.9 235.01-23.22L235.01-23.22Q236.04-24.56 238.02-26.12L238.02-26.12Q238.36-26.37 238.63-26.37L238.63-26.37Q238.94-26.37 239.24-26.12L239.24-26.12Q240.29-25.32 241.01-24.61 241.73-23.9 242.24-23.22L242.24-23.22Q242.48-22.9 242.48-22.31L242.48-22.31 242.48-1.12Q242.48-0.66 242.17-0.33 241.85 0 241.36 0L241.36 0 237.7 0Q237.31 0 237-0.11 236.7-0.22 236.43-0.54L236.43-0.54 234.92-2.49 234.75-2.49Q234.36-1.93 233.54-1.2 232.72-0.46 231.17 0.07 229.62 0.61 227.01 0.61ZM256.03 0.61L256.03 0.61Q253.42 0.61 251.7 0.17 249.98-0.27 248.94-0.89 247.9-1.51 247.32-2.03L247.32-2.03Q246.88-2.44 247.22-2.95L247.22-2.95 249.71-6.64Q250.25-7.42 250.93-6.74L250.93-6.74Q251.64-6.05 252.85-5.41 254.05-4.76 255.86-4.76L255.86-4.76Q257.47-4.76 258.51-5.31 259.55-5.86 259.55-6.91L259.55-6.91Q259.55-7.64 259.08-8.11 258.62-8.57 257.45-9.06 256.28-9.55 254.18-10.3L254.18-10.3Q251.08-11.43 249.49-13.01 247.9-14.6 247.9-17.65L247.9-17.65Q247.9-20.46 249.45-22.22 251-23.97 253.43-24.79 255.86-25.61 258.5-25.61L258.5-25.61Q261.84-25.61 263.2-24.99 264.55-24.37 264.94-24.02L264.94-24.02Q265.31-23.71 265.46-23.29L265.46-23.29Q265.77-22.34 265.94-20.78L265.94-20.78Q266.04-19.87 265.48-19.58L265.48-19.58Q265.19-19.41 264.55-19.21 263.92-19.02 263.28-18.87 262.65-18.73 262.33-18.73L262.33-18.73Q262.23-18.73 262.12-18.79 262.01-18.85 261.75-19.09L261.75-19.09Q261.43-19.41 260.66-19.82 259.89-20.24 258.55-20.24L258.55-20.24Q257.23-20.24 256.34-19.81 255.45-19.38 255.45-18.31L255.45-18.31Q255.45-17.14 256.58-16.55 257.72-15.97 260.33-15.04L260.33-15.04Q262.38-14.33 263.91-13.49 265.43-12.65 266.26-11.29 267.09-9.94 267.09-7.64L267.09-7.64Q267.09-4.66 265.47-2.84 263.84-1.03 261.32-0.21 258.79 0.61 256.03 0.61ZM279.56-16.46L279.56-1.29Q279.56-0.56 279.26-0.28 278.95 0 278.22 0L278.22 0 273.19 0Q272.46 0 272.16-0.28 271.85-0.56 271.85-1.29L271.85-1.29 271.85-34.33Q271.85-34.91 272.09-35.23L272.09-35.23Q273.12-36.57 275.1-38.13L275.1-38.13Q275.44-38.38 275.71-38.38L275.71-38.38Q276.02-38.38 276.32-38.13L276.32-38.13Q277.37-37.33 278.09-36.62 278.81-35.91 279.32-35.23L279.32-35.23Q279.56-34.91 279.56-34.33L279.56-34.33 279.56-22.49 279.66-22.49Q280.2-23.19 281.05-23.91 281.91-24.63 283.34-25.12 284.77-25.61 286.99-25.61L286.99-25.61Q289.23-25.61 291.31-24.68 293.38-23.75 294.7-21.56 296.02-19.36 296.02-15.55L296.02-15.55 296.02-1.29Q296.02-0.56 295.71-0.28 295.41 0 294.68 0L294.68 0 289.65 0Q288.92 0 288.61-0.28 288.31-0.56 288.31-1.29L288.31-1.29 288.31-14.21Q288.31-16.92 287.18-18.15 286.06-19.38 284.13-19.38L284.13-19.38Q282.23-19.38 281.18-18.55 280.13-17.72 279.56-16.46L279.56-16.46ZM330.27-11.69L330.27-11.69Q329.63-11.69 329.19-12.01L329.19-12.01Q328.73-12.33 328.1-12.92 327.46-13.5 326.68-14.36L326.68-14.36Q326.39-14.7 326.39-14.97L326.39-14.97Q326.39-15.23 326.68-15.58L326.68-15.58Q328.19-17.29 329.44-18.09L329.44-18.09Q329.73-18.29 330.27-18.29L330.27-18.29Q331.93-18.29 333.14-19.53 334.35-20.78 334.3-23.56L334.3-23.56Q334.27-26.56 332.82-27.76 331.37-28.96 328.85-28.96L328.85-28.96 327.68-28.96Q326.07-28.96 325.48-28.27 324.9-27.59 324.9-25.93L324.9-25.93 324.9-1.29Q324.9-0.56 324.59-0.28 324.29 0 323.55 0L323.55 0 318.35 0Q317.62 0 317.32-0.28 317.01-0.56 317.01-1.29L317.01-1.29 317.01-28.47Q317.01-30.91 317.46-32.34 317.91-33.76 319.22-34.39 320.53-35.01 323.04-35.01L323.04-35.01 328.85-35.01Q335.86-35.01 339.23-32.26 342.6-29.52 342.6-23.85L342.6-23.85Q342.6-19.6 340.83-16.92 339.06-14.23 336.24-12.96 333.42-11.69 330.27-11.69ZM353.82 0.61L353.82 0.61Q350.24 0.61 348.12-1.4 346.01-3.42 346.01-6.96L346.01-6.96Q346.01-8.79 346.68-10.36 347.36-11.94 349.03-13.15 350.7-14.36 353.72-15.09 356.73-15.82 361.42-15.94L361.42-15.94Q361.42-18.16 360.31-19.14 359.2-20.12 356.97-20.12L356.97-20.12Q354.97-20.12 353.7-19.43 352.43-18.75 352.12-18.51L352.12-18.51Q351.77-18.21 351.29-18.29L351.29-18.29Q350.63-18.38 349.88-18.63 349.14-18.87 348.28-19.19L348.28-19.19Q348.16-19.24 348.01-19.35 347.87-19.46 347.84-19.68L347.84-19.68Q347.84-19.8 347.87-19.98 347.89-20.17 347.99-20.65L347.99-20.65Q348.09-21.14 348.28-21.86 348.48-22.58 348.65-22.97L348.65-22.97Q348.87-23.39 349.38-23.75L349.38-23.75Q349.8-24.1 351.9-24.85 354-25.61 357.98-25.61L357.98-25.61Q368.94-25.61 368.94-14.94L368.94-14.94 368.94-1.12Q368.94-0.66 368.68-0.33 368.42 0 367.81 0L367.81 0 364.15 0Q363.76 0 363.46-0.11 363.15-0.22 362.88-0.54L362.88-0.54 361.37-2.49 361.2-2.49Q360.07-0.85 358.18-0.12 356.29 0.61 353.82 0.61ZM356.51-5.05L356.51-5.05Q358.76-5.05 359.9-6.2 361.05-7.35 361.37-8.57L361.37-8.57 361.37-11.28Q357.98-11.28 356.28-10.75 354.58-10.23 354.02-9.39 353.46-8.54 353.46-7.57L353.46-7.57Q353.46-6.15 354.34-5.6 355.22-5.05 356.51-5.05ZM382.48 0.61L382.48 0.61Q379.87 0.61 378.15 0.17 376.43-0.27 375.39-0.89 374.35-1.51 373.77-2.03L373.77-2.03Q373.33-2.44 373.67-2.95L373.67-2.95 376.16-6.64Q376.7-7.42 377.38-6.74L377.38-6.74Q378.09-6.05 379.3-5.41 380.51-4.76 382.31-4.76L382.31-4.76Q383.92-4.76 384.96-5.31 386-5.86 386-6.91L386-6.91Q386-7.64 385.54-8.11 385.07-8.57 383.9-9.06 382.73-9.55 380.63-10.3L380.63-10.3Q377.53-11.43 375.94-13.01 374.35-14.6 374.35-17.65L374.35-17.65Q374.35-20.46 375.9-22.22 377.46-23.97 379.88-24.79 382.31-25.61 384.95-25.61L384.95-25.61Q388.3-25.61 389.65-24.99 391.01-24.37 391.4-24.02L391.4-24.02Q391.76-23.71 391.91-23.29L391.91-23.29Q392.23-22.34 392.4-20.78L392.4-20.78Q392.49-19.87 391.93-19.58L391.93-19.58Q391.64-19.41 391.01-19.21 390.37-19.02 389.74-18.87 389.1-18.73 388.78-18.73L388.78-18.73Q388.69-18.73 388.58-18.79 388.47-18.85 388.2-19.09L388.2-19.09Q387.88-19.41 387.11-19.82 386.34-20.24 385-20.24L385-20.24Q383.68-20.24 382.79-19.81 381.9-19.38 381.9-18.31L381.9-18.31Q381.9-17.14 383.03-16.55 384.17-15.97 386.78-15.04L386.78-15.04Q388.83-14.33 390.36-13.49 391.88-12.65 392.71-11.29 393.54-9.94 393.54-7.64L393.54-7.64Q393.54-4.66 391.92-2.84 390.3-1.03 387.77-0.21 385.24 0.61 382.48 0.61ZM405.26 0.61L405.26 0.61Q402.65 0.61 400.93 0.17 399.21-0.27 398.17-0.89 397.13-1.51 396.54-2.03L396.54-2.03Q396.11-2.44 396.45-2.95L396.45-2.95 398.94-6.64Q399.47-7.42 400.16-6.74L400.16-6.74Q400.87-6.05 402.07-5.41 403.28-4.76 405.09-4.76L405.09-4.76Q406.7-4.76 407.74-5.31 408.78-5.86 408.78-6.91L408.78-6.91Q408.78-7.64 408.31-8.11 407.85-8.57 406.68-9.06 405.5-9.55 403.4-10.3L403.4-10.3Q400.3-11.43 398.72-13.01 397.13-14.6 397.13-17.65L397.13-17.65Q397.13-20.46 398.68-22.22 400.23-23.97 402.66-24.79 405.09-25.61 407.73-25.61L407.73-25.61Q411.07-25.61 412.43-24.99 413.78-24.37 414.17-24.02L414.17-24.02Q414.54-23.71 414.68-23.29L414.68-23.29Q415-22.34 415.17-20.78L415.17-20.78Q415.27-19.87 414.71-19.58L414.71-19.58Q414.42-19.41 413.78-19.21 413.15-19.02 412.51-18.87 411.88-18.73 411.56-18.73L411.56-18.73Q411.46-18.73 411.35-18.79 411.24-18.85 410.97-19.09L410.97-19.09Q410.66-19.41 409.89-19.82 409.12-20.24 407.78-20.24L407.78-20.24Q406.46-20.24 405.57-19.81 404.67-19.38 404.67-18.31L404.67-18.31Q404.67-17.14 405.81-16.55 406.94-15.97 409.56-15.04L409.56-15.04Q411.61-14.33 413.13-13.49 414.66-12.65 415.49-11.29 416.32-9.94 416.32-7.64L416.32-7.64Q416.32-4.66 414.7-2.84 413.07-1.03 410.55-0.21 408.02 0.61 405.26 0.61ZM433.33 0.61L433.33 0.61Q429.21 0.61 426.16-0.72 423.1-2.05 421.42-4.86 419.74-7.67 419.74-12.11L419.74-12.11Q419.74-18.77 423.15-22.19 426.57-25.61 432.24-25.61L432.24-25.61Q435.92-25.61 438.47-24.29 441.02-22.97 442.36-20.65 443.69-18.33 443.69-15.36L443.69-15.36Q443.69-12.45 442.2-11.3 440.71-10.16 437.85-10.16L437.85-10.16 427.38-10.16Q427.57-7.64 429.22-6.32 430.87-5 433.7-5L433.7-5Q435.95-5 437.3-5.68 438.66-6.35 439.19-6.74L439.19-6.74Q439.66-7.08 440.24-7.06L440.24-7.06Q440.71-7.06 441.57-6.87 442.44-6.69 443.29-6.2L443.29-6.2Q443.91-5.88 443.91-5.32L443.91-5.32Q443.91-5 443.78-4.42L443.78-4.42Q443.71-4.08 443.54-3.43 443.37-2.78 443.1-2.22L443.1-2.22Q442.95-1.95 442.64-1.71L442.64-1.71Q442.15-1.37 441.06-0.81 439.97-0.24 438.09 0.18 436.21 0.61 433.33 0.61ZM427.33-15.16L427.33-15.16 435.29-15.16Q436.53-15.16 436.53-16.31L436.53-16.31Q436.53-18.04 435.45-19.23 434.36-20.41 432.19-20.41L432.19-20.41Q429.82-20.41 428.71-18.9 427.6-17.38 427.33-15.16ZM457.89 0.61L457.89 0.61Q454.65 0.61 452.36-0.99 450.08-2.59 448.9-5.41 447.71-8.23 447.71-11.91L447.71-11.91Q447.71-16.77 449.43-19.79 451.15-22.8 454.29-24.22 457.43-25.63 461.7-25.63L461.7-25.63Q463.17-25.63 464.13-25.49 465.09-25.34 465.51-25.22L465.51-25.22 465.51-34.33Q465.51-34.91 465.75-35.23L465.75-35.23Q466.78-36.57 468.76-38.13L468.76-38.13Q469.1-38.38 469.37-38.38L469.37-38.38Q469.68-38.38 469.98-38.13L469.98-38.13Q471.03-37.33 471.75-36.62 472.47-35.91 472.98-35.23L472.98-35.23Q473.22-34.91 473.22-34.33L473.22-34.33 473.22-1.12Q473.22-0.66 472.91-0.33 472.59 0 472.1 0L472.1 0 468.46 0Q468.07 0 467.77-0.11 467.46-0.22 467.19-0.54L467.19-0.54 465.68-2.49 465.51-2.49Q465.19-2 464.37-1.26 463.56-0.51 462.01 0.05 460.46 0.61 457.89 0.61ZM460.26-5.64L460.26-5.64Q462.46-5.64 463.71-6.47 464.97-7.3 465.51-8.57L465.51-8.57 465.51-18.8Q465.12-19.04 464.22-19.38 463.31-19.73 461.68-19.73L461.68-19.73Q458.65-19.73 457.14-17.75 455.62-15.77 455.62-12.43L455.62-12.43Q455.62-8.96 456.89-7.3 458.16-5.64 460.26-5.64ZM509.79-12.45L509.79-1.29Q509.79-0.56 509.49-0.28 509.18 0 508.45 0L508.45 0 503.25 0Q502.52 0 502.21-0.28 501.91-0.56 501.91-1.29L501.91-1.29 501.91-12.3 497.05-17.94Q495.31-19.97 494.13-21.58 492.95-23.19 492.36-24.91 491.77-26.64 491.77-28.96L491.77-28.96 491.77-31.1Q491.77-31.81 492.02-32.18L492.02-32.18Q493.12-33.79 495.09-35.57L495.09-35.57Q495.46-35.86 495.75-35.86L495.75-35.86Q496.05-35.86 496.36-35.57L496.36-35.57Q497.44-34.64 498.17-33.8 498.9-32.96 499.44-32.18L499.44-32.18Q499.68-31.79 499.68-31.1L499.68-31.1 499.68-28.98Q499.68-27.39 500.61-25.46 501.54-23.54 503.74-21.22L503.74-21.22 506.1-18.73 508.42-21.22Q510.4-23.34 511.44-25.27 512.48-27.2 512.48-28.96L512.48-28.96 512.48-31.1Q512.48-31.81 512.72-32.18L512.72-32.18Q513.77-33.76 515.7-35.57L515.7-35.57Q516.07-35.86 516.31-35.86L516.31-35.86Q516.6-35.86 516.92-35.57L516.92-35.57Q517.95-34.64 518.67-33.8 519.39-32.96 519.9-32.18L519.9-32.18Q520.14-31.79 520.14-31.1L520.14-31.1 520.14-28.96Q520.14-26.27 518.97-23.82 517.8-21.36 514.99-18.24L514.99-18.24 509.79-12.45ZM536.89 0.61L536.89 0.61Q530.74 0.61 527.15-2.66 523.56-5.93 523.56-12.4L523.56-12.4Q523.56-19.04 527.28-22.33 531-25.61 537.23-25.61L537.23-25.61Q543.24-25.61 546.85-22.38 550.46-19.14 550.46-12.84L550.46-12.84Q550.46-6.27 546.85-2.83 543.24 0.61 536.89 0.61ZM537.13-5.3L537.13-5.3Q539.82-5.3 541.19-6.97 542.55-8.64 542.55-12.7L542.55-12.7Q542.55-16.55 541.17-18.13 539.79-19.7 537.08-19.7L537.08-19.7Q534.47-19.7 532.97-18.01 531.47-16.31 531.47-12.5L531.47-12.5Q531.47-8.52 532.9-6.91 534.33-5.3 537.13-5.3ZM564.43 0.61L564.43 0.61Q555.73 0.61 555.73-9.91L555.73-9.91 555.71-22.31Q555.71-22.9 555.95-23.22L555.95-23.22Q556.98-24.56 558.96-26.12L558.96-26.12Q559.3-26.37 559.57-26.37L559.57-26.37Q559.88-26.37 560.18-26.12L560.18-26.12Q561.23-25.32 561.95-24.61 562.67-23.9 563.18-23.22L563.18-23.22Q563.42-22.9 563.42-22.31L563.42-22.31 563.42-10.6Q563.42-5.3 567.62-5.3L567.62-5.3Q569.7-5.3 570.94-6.75 572.19-8.2 572.19-10.69L572.19-10.69 572.19-22.31Q572.19-22.9 572.43-23.22L572.43-23.22Q573.46-24.56 575.44-26.12L575.44-26.12Q575.78-26.37 576.05-26.37L576.05-26.37Q576.36-26.37 576.66-26.12L576.66-26.12Q577.71-25.32 578.43-24.61 579.15-23.9 579.66-23.22L579.66-23.22Q579.9-22.9 579.9-22.31L579.9-22.31 579.9-1.12Q579.9-0.66 579.59-0.33 579.27 0 578.78 0L578.78 0 575.12 0Q574.73 0 574.42-0.11 574.12-0.22 573.85-0.54L573.85-0.54 572.34-2.49 572.16-2.49Q571.77-1.93 570.96-1.2 570.14-0.46 568.59 0.07 567.04 0.61 564.43 0.61ZM594.21-22.17L594.21-20.36 594.31-20.36Q596.14-25.44 600.9-25.44L600.9-25.44Q601.51-25.44 601.9-25.38 602.29-25.32 602.44-25.27L602.44-25.27Q602.8-25.15 602.8-24.71L602.8-24.71 602.8-18.82Q602.8-18.07 601.92-18.41L601.92-18.41Q601.63-18.53 601.08-18.66 600.53-18.8 599.55-18.8L599.55-18.8Q597.04-18.8 595.62-16.96 594.21-15.11 594.21-11.94L594.21-11.94 594.21-1.29Q594.21-0.56 593.9-0.28 593.6 0 592.86 0L592.86 0 587.84 0Q587.1 0 586.8-0.28 586.49-0.56 586.49-1.29L586.49-1.29 586.49-21.75Q586.49-22.34 586.74-22.66L586.74-22.66Q587.25-23.34 587.97-24.05 588.69-24.76 589.74-25.56L589.74-25.56Q589.94-25.71 590.13-25.76 590.33-25.81 590.47-25.81L590.47-25.81Q590.81-25.81 591.16-25.56L591.16-25.56Q593.18-23.97 593.99-22.85L593.99-22.85Q594.21-22.56 594.21-22.17L594.21-22.17ZM639 0L626.87 0Q624.35 0 623.05-0.63 621.74-1.27 621.29-2.71 620.84-4.15 620.84-6.54L620.84-6.54 620.84-31.1Q620.84-31.81 621.08-32.18L621.08-32.18Q622.18-33.79 624.16-35.57L624.16-35.57Q624.52-35.86 624.79-35.86L624.79-35.86Q625.09-35.86 625.4-35.57L625.4-35.57Q626.48-34.64 627.21-33.8 627.94-32.96 628.48-32.18L628.48-32.18Q628.72-31.79 628.72-31.1L628.72-31.1 628.72-9.45Q628.72-7.81 629.31-7.1 629.9-6.4 631.51-6.4L631.51-6.4 639-6.42Q639.59-6.42 639.88-6.23L639.88-6.23Q640.52-5.79 641.2-5.18 641.88-4.57 642.64-3.71L642.64-3.71Q642.88-3.39 642.88-3.2L642.88-3.2Q642.88-2.98 642.64-2.71L642.64-2.71Q641.88-1.86 641.2-1.25 640.52-0.63 639.88-0.2L639.88-0.2Q639.54 0 639 0L639 0ZM644.57-33.2L644.57-33.2Q644.57-33.52 644.76-33.76 644.96-34.01 645.27-34.4L645.27-34.4Q645.96-35.18 646.86-36.05 647.76-36.91 648.69-37.72L648.69-37.72Q649.28-38.18 649.57-38.18L649.57-38.18Q649.86-38.18 650.47-37.72L650.47-37.72Q652.45-36.01 653.84-34.4L653.84-34.4Q654.16-34.03 654.37-33.78 654.58-33.52 654.58-33.2L654.58-33.2Q654.58-32.89 654.37-32.64 654.16-32.4 653.82-31.98L653.82-31.98Q653.16-31.23 652.28-30.36 651.4-29.49 650.47-28.71L650.47-28.71Q650.13-28.42 649.94-28.33 649.74-28.25 649.57-28.25L649.57-28.25Q649.4-28.25 649.22-28.33 649.03-28.42 648.64-28.71L648.64-28.71Q647.67-29.49 646.81-30.36 645.96-31.23 645.27-32.03L645.27-32.03Q644.96-32.42 644.76-32.65 644.57-32.89 644.57-33.2ZM653.4-23.71L653.4-1.29Q653.4-0.56 653.1-0.28 652.79 0 652.06 0L652.06 0 647.03 0Q646.3 0 645.99-0.28 645.69-0.56 645.69-1.29L645.69-1.29 645.69-23.71Q645.69-24.44 645.99-24.72 646.3-25 647.03-25L647.03-25 652.06-25Q652.79-25 653.1-24.72 653.4-24.44 653.4-23.71L653.4-23.71ZM682.41-22.44L682.41-22.44Q683.31-23.54 685.2-24.57 687.09-25.61 690.54-25.61L690.54-25.61Q695.42-25.61 697.59-23.1 699.76-20.58 699.76-15.55L699.76-15.55 699.76-1.29Q699.76-0.56 699.46-0.28 699.15 0 698.42 0L698.42 0 693.39 0Q692.66 0 692.35-0.28 692.05-0.56 692.05-1.29L692.05-1.29 692.05-14.28Q692.05-17.02 691.05-18.2 690.05-19.38 688.05-19.38L688.05-19.38Q686.26-19.38 685.23-18.59 684.19-17.8 683.75-16.46L683.75-16.46 683.75-1.29Q683.75-0.56 683.44-0.28 683.14 0 682.41 0L682.41 0 677.38 0Q676.64 0 676.34-0.28 676.03-0.56 676.03-1.29L676.03-1.29 676.03-14.28Q676.03-16.94 674.93-18.16 673.84-19.38 672.05-19.38L672.05-19.38Q670.37-19.38 669.34-18.55 668.32-17.72 667.76-16.46L667.76-16.46 667.76-1.29Q667.76-0.56 667.45-0.28 667.15 0 666.41 0L666.41 0 661.39 0Q660.65 0 660.35-0.28 660.04-0.56 660.04-1.29L660.04-1.29 660.04-21.75Q660.04-22.34 660.29-22.66L660.29-22.66Q660.8-23.34 661.52-24.05 662.24-24.76 663.29-25.56L663.29-25.56Q663.61-25.81 663.9-25.81L663.9-25.81Q664.17-25.81 664.51-25.56L664.51-25.56Q665.54-24.76 666.27-24.02 667-23.29 667.56-22.51L667.56-22.51 667.68-22.51Q668.51-23.56 670.27-24.58 672.03-25.61 675.3-25.61L675.3-25.61Q678.43-25.61 679.94-24.67 681.45-23.73 682.41-22.44ZM705.23-33.2L705.23-33.2Q705.23-33.52 705.43-33.76 705.62-34.01 705.94-34.4L705.94-34.4Q706.62-35.18 707.53-36.05 708.43-36.91 709.36-37.72L709.36-37.72Q709.94-38.18 710.24-38.18L710.24-38.18Q710.53-38.18 711.14-37.72L711.14-37.72Q713.12-36.01 714.51-34.4L714.51-34.4Q714.83-34.03 715.03-33.78 715.24-33.52 715.24-33.2L715.24-33.2Q715.24-32.89 715.03-32.64 714.83-32.4 714.48-31.98L714.48-31.98Q713.82-31.23 712.95-30.36 712.07-29.49 711.14-28.71L711.14-28.71Q710.8-28.42 710.6-28.33 710.41-28.25 710.24-28.25L710.24-28.25Q710.06-28.25 709.88-28.33 709.7-28.42 709.31-28.71L709.31-28.71Q708.33-29.49 707.48-30.36 706.62-31.23 705.94-32.03L705.94-32.03Q705.62-32.42 705.43-32.65 705.23-32.89 705.23-33.2ZM714.07-23.71L714.07-1.29Q714.07-0.56 713.76-0.28 713.46 0 712.73 0L712.73 0 707.7 0Q706.96 0 706.66-0.28 706.35-0.56 706.35-1.29L706.35-1.29 706.35-23.71Q706.35-24.44 706.66-24.72 706.96-25 707.7-25L707.7-25 712.73-25Q713.46-25 713.76-24.72 714.07-24.44 714.07-23.71L714.07-23.71ZM730.59 0.61L730.59 0.61Q722.44 0.61 722.44-7.86L722.44-7.86 722.44-19.31 719.68-19.31Q718.95-19.31 718.67-19.62 718.39-19.92 718.39-20.65L718.39-20.65 718.39-23.66Q718.39-24.39 718.67-24.69 718.95-25 719.68-25L719.68-25 722.44-25 722.44-28.93Q722.44-29.52 722.68-29.83L722.68-29.83Q723.71-31.18 725.69-32.74L725.69-32.74Q726.03-32.98 726.3-32.98L726.3-32.98Q726.59-32.98 726.88-32.74L726.88-32.74Q727.93-31.93 728.65-31.23 729.37-30.52 729.89-29.83L729.89-29.83Q730.13-29.52 730.13-28.93L730.13-28.93 730.13-25 734.45-25Q735.18-25 735.46-24.69 735.75-24.39 735.75-23.66L735.75-23.66 735.75-20.65Q735.75-19.92 735.46-19.62 735.18-19.31 734.45-19.31L734.45-19.31 730.13-19.31 730.13-9.2Q730.13-5.3 732.96-5.3L732.96-5.3Q733.4-5.3 733.77-5.38 734.13-5.47 734.4-5.57L734.4-5.57Q734.92-5.76 735.12-5.71 735.33-5.66 735.5-5.18L735.5-5.18 736.92-1.39Q737.14-0.78 736.62-0.51L736.62-0.51Q736.26-0.34 734.85 0.13 733.45 0.61 730.59 0.61ZM747.95 0.61L747.95 0.61Q745.34 0.61 743.62 0.17 741.9-0.27 740.86-0.89 739.82-1.51 739.23-2.03L739.23-2.03Q738.79-2.44 739.14-2.95L739.14-2.95 741.63-6.64Q742.16-7.42 742.85-6.74L742.85-6.74Q743.56-6.05 744.76-5.41 745.97-4.76 747.78-4.76L747.78-4.76Q749.39-4.76 750.43-5.31 751.47-5.86 751.47-6.91L751.47-6.91Q751.47-7.64 751-8.11 750.54-8.57 749.37-9.06 748.19-9.55 746.09-10.3L746.09-10.3Q742.99-11.43 741.41-13.01 739.82-14.6 739.82-17.65L739.82-17.65Q739.82-20.46 741.37-22.22 742.92-23.97 745.35-24.79 747.78-25.61 750.42-25.61L750.42-25.61Q753.76-25.61 755.12-24.99 756.47-24.37 756.86-24.02L756.86-24.02Q757.23-23.71 757.37-23.29L757.37-23.29Q757.69-22.34 757.86-20.78L757.86-20.78Q757.96-19.87 757.4-19.58L757.4-19.58Q757.11-19.41 756.47-19.21 755.84-19.02 755.2-18.87 754.57-18.73 754.25-18.73L754.25-18.73Q754.15-18.73 754.04-18.79 753.93-18.85 753.66-19.09L753.66-19.09Q753.35-19.41 752.58-19.82 751.81-20.24 750.46-20.24L750.46-20.24Q749.15-20.24 748.26-19.81 747.36-19.38 747.36-18.31L747.36-18.31Q747.36-17.14 748.5-16.55 749.63-15.97 752.25-15.04L752.25-15.04Q754.3-14.33 755.82-13.49 757.35-12.65 758.18-11.29 759.01-9.94 759.01-7.64L759.01-7.64Q759.01-4.66 757.39-2.84 755.76-1.03 753.24-0.21 750.71 0.61 747.95 0.61ZM775.85-4.42L775.85-4.42Q775.85-4.76 776.07-5.02 776.29-5.27 776.63-5.71L776.63-5.71Q777.39-6.57 778.38-7.51 779.37-8.45 780.37-9.33L780.37-9.33Q781-9.84 781.32-9.84L781.32-9.84Q781.61-9.84 782.3-9.33L782.3-9.33Q784.42-7.52 785.98-5.71L785.98-5.71Q786.32-5.3 786.54-5.03 786.76-4.76 786.76-4.42L786.76-4.42Q786.76-4.08 786.53-3.81 786.3-3.54 785.96-3.08L785.96-3.08Q785.23-2.25 784.26-1.32 783.3-0.39 782.3 0.49L782.3 0.49Q781.66 1 781.32 1L781.32 1Q781.03 1 780.32 0.49L780.32 0.49Q779.24-0.39 778.32-1.33 777.39-2.27 776.63-3.15L776.63-3.15Q776.29-3.56 776.07-3.82 775.85-4.08 775.85-4.42Z" opacity="1" transform="matrix(1,0,0,1,0,0)" fill="#7d7b7b" class="slogan-text-1" data-fill-palette-color="secondary" id="text-1"></path></svg></g></svg></g></svg></g></svg></g><g transform="matrix(1,0,0,1,416.2657366407126,0)"><svg viewBox="0 0 144.93557491199996 153.58844505599996" height="153.58844505599996" width="144.93557491199996"><g><svg xmlns="http://www.w3.org/2000/svg" xmlns:xlink="http://www.w3.org/1999/xlink" version="1.1" x="0" y="0" viewBox="17.019 14.993 67 71" enable-background="new 0 0 100 100" xml:space="preserve" height="153.58844505599996" width="144.93557491199996" class="icon-icon-0" data-fill-palette-color="accent" id="icon-0"><g fill="#f84e45" data-fill-palette-color="accent"><g fill="#f84e45" data-fill-palette-color="accent"><polygon fill="#f84e45" points="71.362,85.993 84.019,72.993 54.47,72.993 67.128,85.993   " data-fill-palette-color="accent"></polygon></g><g fill="#f84e45" data-fill-palette-color="accent"><polygon fill="#f84e45" points="30.848,27.607 19.408,15.993 46.575,15.993 35.227,27.607 36.625,27.607 48.95,14.993     17.019,14.993 29.443,27.607   " data-fill-palette-color="accent"></polygon><path fill="#f84e45" d="M36.095 29.607L46.984 40.662V77.426C46.984 81.146 44.705 84.993 40.89 84.993H26.049C22.418 84.993 18.985 81.315 18.985 77.426V40.673L30.755 29.607H29.295L17.984 40.24V77.426C17.984 81.91 21.828 85.993 26.048 85.993H40.89C45.33 85.993 47.984 81.637 47.984 77.426V40.252L37.5 29.607z" data-fill-palette-color="accent"></path></g></g></svg></g></svg></g></svg></g><defs></defs></svg><rect width="395.52" height="108.24511728327138" fill="none" stroke="none" visibility="hidden"></rect></g></svg></g></svg>